<svg width="23.647" height="24" version="1.1" viewBox="0 0 6.2566 6.3499" xmlns="http://www.w3.org/2000/svg"><g transform="translate(5.9541e-7 -290.65)"><g transform="matrix(.146 0 0 .146 -1.7752 271.15)"><g transform="matrix(.8224 .028832 -.028793 .82127 10.333 26.985)" style="stroke-width:1.216"><path d="m50.46 159.42c0 8.2554-4.9729 15.698-12.6 18.857-7.627 3.1592-16.406 1.4129-22.243-4.4245-5.8374-5.8374-7.5837-14.616-4.4245-22.243 3.1592-7.627 10.602-12.6 18.857-12.6" style="fill:none;paint-order:normal;stroke-linecap:square;stroke-width:3.6481;stroke:#000000"/><path d="m50.542 153.01-8.5091 8.83 16.419 0.77383z" style="fill-rule:evenodd;fill:#000000"/></g><g transform="matrix(.59143 .59146 -.59143 .59146 67.335 67.158)" style="stroke-width:1.1956"><rect x="41.212" y="74.632" width="9" height="33.409" style="fill:none;paint-order:normal;stroke-linecap:square;stroke-width:3.5867;stroke:#000000"/><path d="m39.91 111.54 5.9013 11.835 5.7056-11.803z" style="fill-rule:evenodd;fill:#000000;stroke-width:.31632px;stroke:#000000"/></g></g></g></svg>
