<svg width="6.35mm" height="6.32mm" version="1.1" viewBox="0 0 6.35 6.32" xmlns="http://www.w3.org/2000/svg"><g transform="translate(2.5283e-8 -290.68)"><g transform="matrix(.1497 0 0 .1497 -.96177 260.65)"><path d="m34.383 214.88v-12.759h-26.458v26.458h12.96" style="fill:none;paint-order:normal;stroke-linecap:square;stroke-width:3;stroke:#000000"/><g style="fill:#000000;font-feature-settings:normal;font-variant-caps:normal;font-variant-ligatures:normal;font-variant-numeric:normal" aria-label="A"><path d="m23.002 220.37-0.584-2.2224h-3.8528l-0.60022 2.2224h-3.5202l3.869-11.907h4.2745l3.9177 11.907zm-1.2491-4.8504-0.511-1.9467q-0.17844-0.64889-0.438-1.679-0.25144-1.0301-0.33255-1.4762-0.073 0.41367-0.292 1.3627-0.21089 0.94899-0.949 3.7392z" style="font-feature-settings:normal;font-variant-caps:normal;font-variant-ligatures:normal;font-variant-numeric:normal;stroke-width:.26458px"/></g><path d="m20.885 228.58v12.759h26.458v-26.458h-12.96" style="fill:none;paint-order:normal;stroke-linecap:square;stroke-width:3;stroke:#000000"/><g transform="matrix(1.2697 0 0 1.2697 -24.76 -99.814)" style="stroke-width:.7876"><g style="fill:#000000;font-feature-settings:normal;font-variant-caps:normal;font-variant-ligatures:normal;font-variant-numeric:normal" aria-label="n"><path d="m47.283 264.64v-4.2581q0-0.77859-0.22738-1.1713-0.22049-0.39963-0.71658-0.39963-0.68213 0-0.9853 0.54432-0.30317 0.54433-0.30317 1.8672v3.4175h-2.6941v-7.8066h2.0326l0.33762 0.96463h0.15848q0.34451-0.55121 0.95085-0.82682 0.61323-0.27561 1.4056-0.27561 1.2954 0 2.0119 0.75103 0.72347 0.75103 0.72347 2.1153v5.0781z" style="font-feature-settings:normal;font-variant-caps:normal;font-variant-ligatures:normal;font-variant-numeric:normal;stroke-width:.20839px"/></g><g style="fill:#000000;font-feature-settings:normal;font-variant-caps:normal;font-variant-ligatures:normal;font-variant-numeric:normal" aria-label="~"><path d="m44.325 254.27q-0.75792 0-1.6054 0.83371v-1.9361q0.71658-0.74415 1.819-0.74415 0.47542 0 0.89572 0.0965 0.4203 0.0896 1.0335 0.33762 0.90262 0.37896 1.6399 0.37896 0.34451 0 0.7717-0.22049 0.43408-0.22049 0.81993-0.61323v1.9362q-0.72347 0.75103-1.819 0.75103-0.4892 0-0.92329-0.10335-0.42719-0.10336-1.006-0.33762-0.90262-0.37896-1.6261-0.37896z" style="font-feature-settings:normal;font-variant-caps:normal;font-variant-ligatures:normal;font-variant-numeric:normal;stroke-width:.20839px"/></g></g></g></g></svg>
